<?xml version="1.0" encoding="utf-8"?>
<!-- Generator: Adobe Illustrator 17.1.0, SVG Export Plug-In . SVG Version: 6.00 Build 0)  -->
<!DOCTYPE svg PUBLIC "-//W3C//DTD SVG 1.1//EN" "http://www.w3.org/Graphics/SVG/1.1/DTD/svg11.dtd">
<svg version="1.1" id="Layer_1" xmlns="http://www.w3.org/2000/svg" xmlns:xlink="http://www.w3.org/1999/xlink" x="0px" y="0px"
	 viewBox="0 0 612 207.2" enable-background="new 0 0 612 207.2" xml:space="preserve">
<g>
	<path fill="#46B149" d="M269.3,53.3c-32.8,0-51.6,20.5-51.6,56.3c0,18.3,4.6,32.4,13.8,41.9c9.2,9.6,22.6,14.6,40.1,14.6
		c13.9,0,22.9-3,29.2-6.7c5.5-3.2,11.5-8.2,11.7-17.8c0.1-5.3-5.3-12.3-8.9-8.9c-6.5,6.2-19.8,13.3-32.1,13.3
		c-18.3,0-29.8-10.6-31.2-28.7h63.9c13.1,0,13.1-11.4,13.1-17.6c0-5-0.9-18-8.9-29C300.1,59.2,286.9,53.3,269.3,53.3z M291.7,97.9
		h-50.9c2.4-16.1,12.2-24.7,28.6-24.7c15.1,0,23.5,6.9,25.4,21.3C295.1,96.4,293.6,97.9,291.7,97.9z"/>
	<path fill="#46B149" d="M201.5,0c-11.2,1.1-17.8,6.8-17.8,20.7v41.7c-5.4-4-14.7-9.1-27.8-9.1c-16.2,0-28.9,4.7-37.4,14.1
		c-8.6,9.4-13,23.6-13,42.1c0,18.3,4.4,32.3,13,41.9c8.7,9.6,21.6,14.6,38.3,14.6c30.8,0,49.3-17.5,49.3-46.8V3.9
		C206.1,1.6,204-0.2,201.5,0z M183.7,119.3c0,17.4-9.5,26.9-26.9,26.9c-19.7,0-28.9-11.7-28.9-36.6c0-24.4,9.4-36.4,28.9-36.4
		c0.4,0,0.9,0,1.5,0c14.3,0.7,25.4,12.2,25.4,25.8V119.3z"/>
	<path fill="#46B149" d="M93.9,57.3c0-2.4-2.1-4-4.6-3.8c-11.2,1.1-17.8,6.8-17.8,20.7v8.2v2.9v37.3c0,16.4-7.1,23-24.5,23
		s-24.5-6.6-24.5-23v-36V80V58.6c0-2.4-2.1-4-4.6-3.8C6.6,55.8,0,61.5,0,75.5V80v6.6v36c0,13.1,2.9,23,9.1,30
		C16.8,161.7,29.3,166,47,166c17.8,0,30.3-4.4,38-13.4c6.1-7.1,9-16.9,9-30V71.7l0,0L93.9,57.3L93.9,57.3z"/>
	<path fill="#46B149" d="M448.6,53.3c-14.8,0-26.1,4.4-33.8,12.9c-7.7-8.3-21-12.9-36.9-12.9c-10.3,0-19.9,3.2-26.7,8.9
		c-3.1-5.5-9.1-8.2-17-8.9c-2.7-0.2-5,1.6-5,3.8v22v6.1v47.9v11.1v5c0,0,0.1,0,0.3,0.1c1.5,10.3,7.7,14.7,17.5,15.7
		c2.5,0.2,4.6-1.6,4.6-3.8v-12v-16v-32.9c0-6.1,0.8-11,2.4-14.9h0.1v-0.2c3.5-8.3,10.6-12,22.3-12c17.8,0,24.8,7.2,24.8,25.7v34.5
		H401v11.1c0,0.9,0,1.8,0.1,2.7v2c0,0,0.1,0,0.2,0c1.3,10.5,7.7,15.1,17.6,16c2.5,0.2,4.6-1.6,4.6-3.8v-16.1c0-0.2,0.1-0.3,0.1-0.6
		V96c0-15.4,8.3-22.7,25.2-22.7c17.7,0,25.2,7.6,25.2,25.7v34.5v11.1l0,0l0,0c0,14,6.6,19.6,17.8,20.7c2.5,0.2,4.6-1.6,4.6-3.8V144
		v-10.5V96.1c0-11.8-3-21.3-9.1-28.4C479.2,58.2,466.2,53.3,448.6,53.3z"/>
	<path fill="#46B149" d="M609.5,54.9L609.5,54.9c-2.8-1-5.6-1.6-8.4-1.6c-6.6,0-12.1,2.9-14.6,7.6l-31.3,68.5l-18.4-42.8l-11.2-25.7
		c-2.5-4.7-8-7.6-14.6-7.6c-2.8,0-5.6,0.6-8.4,1.6l0,0c-2,0.7-2.9,2.9-2.1,4.7l12.3,26.9l30.7,69c-9,21-13.7,31.5-30.8,31.5h-9.6
		c-3.2,0-5.7,2.5-5.4,5.6c0.8,8.6,9.2,14.6,18.9,14.6c19.5,0,32.8-11.8,42.9-34.4l52.3-113.2C612.4,57.8,611.6,55.7,609.5,54.9z"/>
</g>
</svg>
