<?xml version="1.0" encoding="iso-8859-1"?>
<!-- Generator: Adobe Illustrator 16.0.0, SVG Export Plug-In . SVG Version: 6.00 Build 0)  -->
<!DOCTYPE svg PUBLIC "-//W3C//DTD SVG 1.1//EN" "http://www.w3.org/Graphics/SVG/1.1/DTD/svg11.dtd">
<svg version="1.1" id="acev3" xmlns="http://www.w3.org/2000/svg" xmlns:xlink="http://www.w3.org/1999/xlink" x="0px" y="0px"
	 width="100px" height="34px" viewBox="0 0 100 34" style="enable-background:new 0 0 100 34;" xml:space="preserve">
<g>
	<path style="fill:#46B149;" d="M18.432,5.978c1.296,0,2.399,0.456,3.312,1.368c0.912,0.913,1.368,2.016,1.368,3.312v16.2H6.552
		c-1.296,0-2.4-0.456-3.312-1.368c-0.913-0.912-1.368-2.016-1.368-3.312v-7.704h17.352v-3.816c0-0.216-0.078-0.401-0.234-0.558
		c-0.157-0.156-0.342-0.234-0.558-0.234H1.872V5.978H18.432z M19.224,22.97v-4.608H5.76v3.816c0,0.216,0.078,0.402,0.234,0.558
		c0.156,0.156,0.342,0.234,0.558,0.234H19.224z"/>
	<path style="fill:#46B149;" d="M30.959,22.97h16.56v3.888h-16.56c-1.296,0-2.4-0.456-3.312-1.368
		c-0.913-0.912-1.368-2.016-1.368-3.312V10.657c0-1.296,0.456-2.399,1.368-3.312c0.912-0.912,2.016-1.368,3.312-1.368h16.488v3.888
		H30.959c-0.216,0-0.402,0.079-0.558,0.234c-0.156,0.156-0.234,0.342-0.234,0.558v11.521c0,0.216,0.078,0.402,0.234,0.558
		C30.557,22.892,30.744,22.97,30.959,22.97z"/>
	<path style="fill:#46B149;" d="M67.319,5.978c1.296,0,2.399,0.456,3.312,1.368c0.912,0.913,1.368,2.016,1.368,3.312v7.704H54.647
		v3.816c0,0.216,0.077,0.402,0.233,0.558c0.156,0.156,0.343,0.234,0.559,0.234h16.56v3.888h-16.56c-1.296,0-2.4-0.456-3.313-1.368
		s-1.368-2.016-1.368-3.312V10.657c0-1.296,0.456-2.399,1.368-3.312c0.912-0.912,2.017-1.368,3.313-1.368H67.319z M54.647,14.474
		h13.464v-3.816c0-0.216-0.078-0.401-0.234-0.558c-0.156-0.156-0.342-0.234-0.558-0.234h-11.88c-0.216,0-0.402,0.079-0.559,0.234
		c-0.156,0.156-0.233,0.342-0.233,0.558V14.474z"/>
	<path style="fill:#46B149;" d="M85.444,16.417h2.232l-5.76,10.44h-1.944l-5.76-10.44h2.25l4.481,8.244L85.444,16.417z"/>
	<path style="fill:#46B149;" d="M98.274,21.439c0.401,0.354,0.603,0.803,0.603,1.344v2.254c0,0.504-0.178,0.934-0.532,1.288
		c-0.354,0.355-0.784,0.532-1.288,0.532h-6.44c-0.504,0-0.933-0.177-1.288-0.532c-0.354-0.354-0.531-0.784-0.531-1.288v-0.42h1.512
		v0.42c0,0.084,0.03,0.156,0.091,0.218c0.061,0.061,0.133,0.091,0.217,0.091h6.44c0.084,0,0.156-0.03,0.217-0.091
		c0.061-0.062,0.091-0.134,0.091-0.218v-2.254c0-0.084-0.03-0.156-0.091-0.217s-0.133-0.091-0.217-0.091h-6.44v-1.512h6.021
		c0.084,0,0.156-0.03,0.217-0.092c0.061-0.061,0.091-0.133,0.091-0.217v-2.058c0-0.084-0.03-0.156-0.091-0.217
		s-0.133-0.092-0.217-0.092h-6.021c-0.084,0-0.156,0.031-0.217,0.092s-0.091,0.133-0.091,0.217v0.56h-1.512v-0.56
		c0-0.504,0.177-0.934,0.531-1.288c0.355-0.355,0.784-0.532,1.288-0.532h6.021c0.504,0,0.933,0.177,1.288,0.532
		c0.354,0.354,0.532,0.784,0.532,1.288v2.058C98.457,20.917,98.396,21.179,98.274,21.439z"/>
</g>
</svg>
